<?xml version="1.0" standalone="no"?>
<!DOCTYPE svg PUBLIC "-//W3C//DTD SVG 20010904//EN"
 "http://www.w3.org/TR/2001/REC-SVG-20010904/DTD/svg10.dtd">
<svg version="1.0" xmlns="http://www.w3.org/2000/svg"
 width="700.000000pt" height="700.000000pt" viewBox="0 0 700.000000 700.000000"
 preserveAspectRatio="xMidYMid meet">
<metadata>
Created by potrace 1.11, written by Peter Selinger 2001-2013
</metadata>
<g transform="translate(0.000000,700.000000) scale(0.100000,-0.100000)"
fill="#000000" stroke="none">
<path d="M0 5419 l0 -1581 38 30 c950 757 1207 964 1209 970 1 4 -153 220
-342 481 -190 261 -343 476 -342 478 2 1 306 -92 675 -207 369 -116 677 -210
684 -210 7 0 246 187 530 415 284 228 521 415 525 415 4 0 451 -168 993 -374
l985 -374 683 -947 c591 -819 682 -951 674 -969 -5 -12 -153 -258 -329 -548
l-321 -527 265 -686 c146 -378 263 -689 260 -691 -2 -3 -235 127 -517 287
-403 230 -514 290 -520 278 -5 -8 -240 -381 -523 -829 l-515 -815 832 -6 c457
-3 1107 -7 1444 -8 l612 -1 0 3500 0 3500 -3500 0 -3500 0 0 -1581z"/>
<path d="M1468 4403 l-1468 -1178 0 -837 0 -837 43 -11 c103 -27 379 -125 479
-171 588 -269 1068 -714 1373 -1275 l39 -71 494 -6 c273 -4 600 -7 728 -7
l232 0 1108 1718 c609 944 1111 1722 1116 1728 5 7 -178 268 -491 700 l-498
689 -834 368 c-458 202 -838 367 -843 367 -6 0 -671 -530 -1478 -1177z m713
-226 l40 -186 -111 -371 c-61 -205 -109 -374 -107 -376 2 -2 120 47 263 109
l259 114 3 -28 c2 -15 -1 -92 -7 -171 -5 -78 -8 -145 -5 -147 4 -4 79 9 267
46 l27 6 0 -142 0 -142 130 2 c72 1 132 0 134 -2 2 -2 0 -60 -5 -128 -4 -69
-7 -127 -5 -129 4 -3 230 14 299 23 22 3 37 1 37 -5 0 -6 -50 -123 -111 -261
-60 -138 -108 -253 -106 -255 2 -2 157 57 345 131 189 74 354 135 368 135 26
0 426 -58 430 -63 1 -1 -181 -202 -406 -446 l-409 -444 -208 -132 c-114 -72
-214 -135 -222 -140 -20 -11 -29 -26 259 390 141 204 259 375 263 381 5 9
-358 -76 -788 -185 -66 -16 -120 -29 -121 -28 0 1 4 80 9 175 5 95 7 175 4
178 -3 3 -85 -1 -183 -10 -99 -8 -180 -13 -182 -12 -1 2 1 80 5 175 l8 171
-177 0 c-98 0 -178 3 -178 8 0 4 11 86 25 182 13 96 22 177 19 179 -3 3 -84
-3 -181 -12 -97 -9 -178 -15 -180 -13 -3 2 25 194 62 425 37 232 65 426 63
432 -2 6 -169 -116 -370 -270 -202 -155 -370 -281 -373 -281 -3 0 38 86 91
191 l95 191 441 464 c242 256 442 463 445 461 2 -2 21 -88 44 -190z m-459
-2576 c158 -227 288 -417 288 -421 0 -10 -140 -102 -149 -98 -4 2 -144 154
-311 338 -167 184 -318 351 -337 371 l-34 36 118 96 c65 52 122 95 127 93 5
-1 139 -188 298 -415z"/>
</g>
</svg>
